<svg xmlns="http://www.w3.org/2000/svg" xmlns:xlink="http://www.w3.org/1999/xlink" viewBox="0 0 2338.57 2568.11"><defs><linearGradient id="linear-gradient" x1="1973.75" y1="77.52" x2="-90.68" y2="2818.38" gradientUnits="userSpaceOnUse"><stop offset="0" stop-color="#4f52ff"/><stop offset="1" stop-color="#4042e2"/></linearGradient><linearGradient id="linear-gradient-2" x1="1973.75" y1="77.52" x2="-90.68" y2="2818.38" gradientTransform="translate(1148.83 -497.53) rotate(45)" xlink:href="#linear-gradient"/><linearGradient id="linear-gradient-3" x1="1362.2" y1="-337.65" x2="1247.28" y2="568.17" gradientTransform="translate(1148.83 -497.53) rotate(45)" gradientUnits="userSpaceOnUse"><stop offset="0" stop-color="#ff928e"/><stop offset="1" stop-color="#fe7062"/></linearGradient><linearGradient id="linear-gradient-4" x1="-298.32" y1="3190.2" x2="-556.39" y2="4238.58" gradientTransform="translate(2315 -3594.14)" gradientUnits="userSpaceOnUse"><stop offset="0" stop-color="#09005d"/><stop offset="1" stop-color="#1a0f91"/></linearGradient><linearGradient id="linear-gradient-5" x1="-518.37" y1="3410.56" x2="-597.22" y2="4256.49" gradientTransform="translate(-1535.68 3117.14) rotate(-135)" xlink:href="#linear-gradient-4"/><linearGradient id="linear-gradient-6" x1="14260.31" y1="2359.41" x2="13730.72" y2="2935.46" gradientTransform="translate(-13742.2 -58.86) rotate(0.54)" xlink:href="#linear-gradient-4"/><linearGradient id="linear-gradient-7" x1="14088.41" y1="2402.19" x2="14135.45" y2="2402.19" gradientTransform="translate(-13742.2 -58.86) rotate(0.54)" gradientUnits="userSpaceOnUse"><stop offset="0" stop-color="#febbba"/><stop offset="1" stop-color="#ff928e"/></linearGradient><linearGradient id="linear-gradient-8" x1="14302.04" y1="1707.91" x2="13851.37" y2="2318.73" gradientTransform="translate(-13742.2 -58.86) rotate(0.54)" xlink:href="#linear-gradient-4"/><linearGradient id="linear-gradient-9" x1="14141.51" y1="2250.16" x2="13611.89" y2="2826.24" gradientTransform="translate(-13742.2 -58.86) rotate(0.54)" xlink:href="#linear-gradient-4"/><linearGradient id="linear-gradient-10" x1="13918.87" y1="2399.77" x2="13959.49" y2="2399.77" xlink:href="#linear-gradient-7"/><linearGradient id="linear-gradient-11" x1="14221.72" y1="1648.65" x2="13771.06" y2="2259.46" gradientTransform="translate(-13742.2 -58.86) rotate(0.54)" xlink:href="#linear-gradient-4"/><linearGradient id="linear-gradient-12" x1="11708.13" y1="-8960.16" x2="11228.18" y2="-8605.26" gradientTransform="matrix(-1, 0, 0, 1, -2163.46, 0)" xlink:href="#linear-gradient-3"/><linearGradient id="linear-gradient-13" x1="14282.04" y1="1174.9" x2="14522.39" y2="1174.9" xlink:href="#linear-gradient-7"/><linearGradient id="linear-gradient-14" x1="-4993.5" y1="1133.69" x2="-4832.23" y2="1500.61" gradientTransform="matrix(-1, -0.01, -0.01, 1, -4266.87, 32.09)" xlink:href="#linear-gradient-7"/><linearGradient id="linear-gradient-15" x1="14521.23" y1="1012.42" x2="14588.53" y2="908.95" xlink:href="#linear-gradient-7"/><linearGradient id="linear-gradient-16" x1="11742.06" y1="-8914.28" x2="11262.11" y2="-8559.39" gradientTransform="matrix(-1, 0, 0, 1, -2163.46, 0)" xlink:href="#linear-gradient-3"/><linearGradient id="linear-gradient-17" x1="13756.13" y1="1515.3" x2="14060.27" y2="1515.3" xlink:href="#linear-gradient-7"/><linearGradient id="linear-gradient-18" x1="223.13" y1="1419.18" x2="338.05" y2="1196.1" gradientTransform="matrix(1, 0, 0, 1, 0, 0)" xlink:href="#linear-gradient-7"/><linearGradient id="linear-gradient-19" x1="4866.61" y1="7581.44" x2="4821.68" y2="7433.23" gradientTransform="matrix(0.75, -0.66, 0.66, 0.75, -8270.06, -1308.28)" xlink:href="#linear-gradient-7"/><linearGradient id="linear-gradient-20" x1="4826.07" y1="7323.2" x2="4863.66" y2="7537.6" gradientTransform="matrix(0.75, -0.66, 0.66, 0.75, -8270.06, -1308.28)" xlink:href="#linear-gradient-4"/><linearGradient id="linear-gradient-21" x1="4820.68" y1="7580.75" x2="4780.25" y2="7447.4" gradientTransform="matrix(0.75, -0.66, 0.66, 0.75, -8270.06, -1308.28)" xlink:href="#linear-gradient-7"/><linearGradient id="linear-gradient-22" x1="13852.62" y1="1393.87" x2="14020.44" y2="2093.15" gradientTransform="translate(-13467.39)" xlink:href="#linear-gradient-4"/><linearGradient id="linear-gradient-23" x1="13737.62" y1="1578.87" x2="13832.71" y2="1578.87" gradientTransform="translate(-13467.39)" xlink:href="#linear-gradient-7"/></defs><g id="圖層_2" data-name="圖層 2"><g id="Illustration"><circle cx="1174.99" cy="1138" r="1074.29" transform="translate(-460.54 1164.16) rotate(-45)" style="fill:#bdd0fb"/><circle cx="1174.99" cy="1138" r="916.86" style="fill:url(#linear-gradient)"/><path d="M1175,2100.79c-530.88,0-962.79-431.9-962.79-962.79S644.11,175.21,1175,175.21s962.78,431.9,962.78,962.79S1705.87,2100.79,1175,2100.79Zm0-1879.65c-505.56,0-916.86,411.3-916.86,916.86s411.3,916.86,916.86,916.86,916.86-411.3,916.86-916.86S1680.55,221.14,1175,221.14Z" style="fill:#fff"/><circle cx="1174.99" cy="1138" r="558.96" transform="translate(-460.54 1164.16) rotate(-45)" style="fill:url(#linear-gradient-2)"/><path d="M1175,1742.89c-333.54,0-604.89-271.36-604.89-604.89S841.45,533.12,1175,533.12,1779.88,804.46,1779.88,1138,1508.52,1742.89,1175,1742.89ZM1175,625c-282.89,0-513,230.15-513,513s230.15,513.05,513,513.05,513-230.16,513-513S1457.88,625,1175,625Z" style="fill:#fff"/><circle cx="1174.99" cy="1138" r="216.56" transform="translate(-460.54 1164.16) rotate(-45)" style="fill:url(#linear-gradient-3)"/><path d="M1175,1400.48c-144.73,0-262.48-117.74-262.48-262.48S1030.26,875.51,1175,875.51,1437.47,993.26,1437.47,1138,1319.72,1400.48,1175,1400.48Zm0-433.12c-94.09,0-170.64,76.55-170.64,170.64s76.55,170.64,170.64,170.64,170.64-76.55,170.64-170.64S1269.08,967.36,1175,967.36Z" style="fill:#fff"/><rect x="1763.45" y="-51.78" width="32.26" height="1221.52" transform="translate(2642.7 2212.59) rotate(-135)" style="fill:url(#linear-gradient-4)"/><path d="M1352.46,924.42c13.08-13.09,74.78,48.6,61.69,61.69L1185.34,1166c-8.45,6.64-19.41-4.31-12.76-12.76Z" style="fill:url(#linear-gradient-5)"/><path d="M2222.37,139l116.2,11.55L2179.05,310.08a246.61,246.61,0,0,1-198.78,71h0Z" style="fill:#91b3fa"/><path d="M2199.56,116.2,2188,0,2028.49,159.52a246.61,246.61,0,0,0-71,198.77h0Z" style="fill:#91b3fa"/><path d="M327.88,2477.34s-5.78,31-8.76,61.71a21.16,21.16,0,0,0,20,23.13c40.91,2.1,128.44,6.25,159.87,5.15a6.89,6.89,0,0,0,6.15-9.38,15.43,15.43,0,0,0-7.81-8.39l-144-67.85Z" style="fill:url(#linear-gradient-6)"/><path d="M323.56,2459.05l4.05,37.18s25.22,12,42.65-1.08l-10.09-41.49Z" style="fill:url(#linear-gradient-7)"/><path d="M333.53,1760.82c-2,9.68-14.83,483.91,33.84,697a7.22,7.22,0,0,1-4.31,8.35,125.75,125.75,0,0,1-41.37,8,12.42,12.42,0,0,1-12.24-9c-14-49.45-81.11-297.2-87.92-533.32-7.61-263.84.09-9,.09-9l7.49-163Z" style="fill:url(#linear-gradient-8)"/><path d="M161.36,2492s-8.88,15.59-17.73,57.16a12.92,12.92,0,0,0,11.22,15.58c13.5,1.46,34.29,3.37,51,3.42a12.89,12.89,0,0,0,12.89-14.25c-1.7-15.23-7.21-40.23-24.8-59.84Z" style="fill:url(#linear-gradient-9)"/><path d="M154.14,2444.1l9.76,56.27s10.11,7.67,30.31,2.37l-4.34-60.48Z" style="fill:url(#linear-gradient-10)"/><path d="M132.72,1773.46c-43.85,249.86,3.1,618.6,19.43,690.84a11.24,11.24,0,0,0,9,8.62c7.59,1.33,20.08,2.48,32.45-1a10.3,10.3,0,0,0,7.49-9.42c2.84-58.25,2.15-416,42.13-557a32.16,32.16,0,0,1,12.56-17.6l75.5-52.59,6.57-86.12Z" style="fill:url(#linear-gradient-11)"/><path d="M401.47,1301.81C277.22,1298.57,139.78,1332,139.78,1332c-39.1,215.77-10.92,465.36-10.92,465.36,96,26.15,204.87-13.47,204.87-13.47,16.86-90.19,93.88-343.72,93.88-343.72,60.79-6.95,111-24,152.38-46.76-31.07-36.72-45.44-83.2-51.61-110.65C484.32,1295.94,439.79,1302.81,401.47,1301.81Z" style="fill:url(#linear-gradient-12)"/><path d="M770.27,1122.28c-12.07-14.86-27.58-8-27.58-8-19,77.07-115.51,138.79-214.31,168.47,6.17,27.45,20.54,73.93,51.61,110.65C744.35,1303,770.27,1122.28,770.27,1122.28Z" style="fill:url(#linear-gradient-13)"/><path d="M767.27,1126c1.24,4.07-13.61,10.11-22.16-6.58-.23-8-4.74-42.1.07-48.54,25.66-34.3,75.19-77.12,75.19-77.12,8.22,8.27,1.31,16.25,1.31,16.25l-24.07,24.59c4.9,9.05,10.91,16.71,13.65,27.63a33.37,33.37,0,0,1-3.56,24.54c-4.25,7.5-10.05,17.24-15.52,24.85C781.83,1126,767.27,1126,767.27,1126Z" style="fill:url(#linear-gradient-14)"/><path d="M787,1050.61l-21.89,18.19-7,18.26,19.15,21.66s6.86-36.3,11.77-44.12S791.52,1053,787,1050.61Z" style="fill:url(#linear-gradient-15)"/><path d="M186.29,1452.73,139.78,1332S23,1409.7,2.91,1509.51c21.92,1.83,61.77,7.91,100.65,28C112.59,1490.39,186.29,1452.73,186.29,1452.73Z" style="fill:url(#linear-gradient-16)"/><path d="M286.65,1566.92s-131,72.4-174.4,9.09c-9-13.14-11.06-26.14-8.69-38.49-38.88-20.1-78.73-26.18-100.65-28-6,30.09-3.3,62.18,14.1,94.75,75.68,141.64,286.58-5,286.58-5Z" style="fill:url(#linear-gradient-17)"/><path d="M276.56,1199.73l-40.63,114a4.11,4.11,0,0,0,1.83,5c10.72,6.07,49.39,23.66,96.47-5.56a19.42,19.42,0,0,0,9.06-13.77L357,1200.49Z" style="fill:url(#linear-gradient-18)"/><path d="M363.6,1094.66s42.64,82.14,36.76,115.11-59.67,30.07-106.4,2.81L262,1124Z" style="fill:url(#linear-gradient-19)"/><path d="M296.45,1169.26a3.37,3.37,0,0,0,1.52-4.91c-3.43-5.35-9.85-16.25-11.84-25.77,0,0-7.76-5.07,20-11.43s69.1-16.24,78-39.71c8.68-22.89-13-80.85-48.88-35.17a3.36,3.36,0,0,1-5.33,0c-5.74-7.62-20.87-23.46-42.17-14.15-19.94,8.72-22.31,23.24-22.11,30.58a3.35,3.35,0,0,1-4,3.39c-10-2-34.08-3.88-45.56,20.71-9.45,20.27-3.55,31.84,1.88,37.53a3.36,3.36,0,0,1-1.49,5.56c-6.61,2-15.18,7.47-14.48,22.93,1,21.37,24.88,19.72,31.69,18.81a3.36,3.36,0,0,1,3,1.09c5.77,6.5,31.78,34.15,60.18,37.73a3.4,3.4,0,0,0,3.61-4.46l-12-35.88a3.39,3.39,0,0,1,1.87-4.18Z" style="fill:url(#linear-gradient-20)"/><path d="M301.35,1174.39s-30.71-21.51-33.14-3.67,27.59,26.14,42.56,19.62Z" style="fill:url(#linear-gradient-21)"/><path d="M259.87,1681.35l71.37-249.25a7.28,7.28,0,0,1,6.15-5.24c12.93-1.51,50.4-5.74,93.66-9.4,52.12-4.41,112.63-8,148.8-4.94a7.29,7.29,0,0,1,6,10.49c-20.57,41.61-105.16,210.85-147.52,266.29a7.33,7.33,0,0,1-5.88,2.89l-165.6-1.54A7.29,7.29,0,0,1,259.87,1681.35Z" style="fill:url(#linear-gradient-22)"/><path d="M277.11,1621.13s-9.94-40.89-5.93-55.39,11.78-33.15,37.68-29,56.46,15.06,56.46,15.06-1.55,18.89-21.23,12.79l12.2,9.45s-1.74,15.13-18.37,7l11.36,12.53s-7.15,12.42-19.38,4.46S311.81,1626.05,277.11,1621.13Z" style="fill:url(#linear-gradient-23)"/><path d="M426.3,1491.87a21,21,0,1,0,20.95-21A21,21,0,0,0,426.3,1491.87Z" style="fill:#91b3fa"/><path d="M339.32,1505.68l14.53-49.3a16.89,16.89,0,0,1,12.7-11.86C412.1,1435,536.76,1433,538,1433l-.08-5.57c-5.14.08-126.45,2-172.52,11.66a22.44,22.44,0,0,0-16.9,15.73L334,1504.1Z" style="fill:#bdd0fb"/></g></g></svg>