<svg xmlns="http://www.w3.org/2000/svg" xmlns:xlink="http://www.w3.org/1999/xlink" viewBox="0 0 1094.17 947.5"><defs><clipPath id="clip-path"><polygon points="331.14 329.55 172.4 329.55 222.09 130.13 380.84 130.13 331.14 329.55" style="fill:none"/></clipPath></defs><g id="圖層_2" data-name="圖層 2"><g id="Layer_1" data-name="Layer 1"><polygon points="744.28 947.5 176.66 947.5 370.7 162.45 938.33 162.45 744.28 947.5" style="fill:#fff2e2"/><polygon points="659.5 898.51 91.87 898.51 285.92 113.47 853.55 113.47 659.5 898.51" style="fill:#fffff8"/><polygon points="567.63 842.54 0 842.54 194.05 57.49 761.67 57.49 567.63 842.54" style="fill:#fffff8"/><polygon points="841.98 162.45 662.39 893.82 190.5 898.51 676.64 909.21 841.98 162.45" style="fill:#ffd7ab"/><polygon points="747.7 113.47 577.08 837.84 105.19 842.54 585.09 854.4 747.7 113.47" style="fill:#ffd7ab"/><polygon points="331.14 329.55 172.4 329.55 222.09 130.13 380.84 130.13 331.14 329.55" style="fill:#ff929f"/><polygon points="693.55 157.68 409.13 157.68 416.13 130.13 700.55 130.13 693.55 157.68" style="fill:#f9b170"/><polygon points="680.72 214.25 396.3 214.25 403.3 186.69 687.72 186.69 680.72 214.25" style="fill:#f9b170"/><polygon points="667.31 270.81 382.89 270.81 389.89 243.26 674.31 243.26 667.31 270.81" style="fill:#f9b170"/><polygon points="651.57 327.37 367.14 327.37 374.14 299.82 658.56 299.82 651.57 327.37" style="fill:#f9b170"/><polygon points="651.57 386.26 130.91 386.26 137.91 358.71 658.56 358.71 651.57 386.26" style="fill:#f9b170"/><polygon points="637.67 445.16 117.01 445.16 124.01 417.61 644.66 417.61 637.67 445.16" style="fill:#f9b170"/><polygon points="618.42 511.48 97.77 511.48 104.76 483.93 625.42 483.93 618.42 511.48" style="fill:#f9b170"/><polygon points="600.93 568.75 80.27 568.75 87.27 541.2 607.93 541.2 600.93 568.75" style="fill:#f9b170"/><g style="clip-path:url(#clip-path)"><path d="M345,349.38s9.31-4.24,12.95-2.95,13.49,5.56,13.27,9.82-16,9-26.61,3.83S345,349.38,345,349.38Z" style="fill:#c97e67"/><path d="M347.76,361.07a6.36,6.36,0,0,1-.66,1.48c-3.13,5.05-54.73,5.3-60.63,1.06-2.63-1.89-3.44-28-3.52-56.28-.1-35,.9-73.28.9-73.28S304,243.42,305,255s-7.5,80.84-1.61,85.08,33.1,4.78,42.17,7.45C345.58,347.48,349.44,355.78,347.76,361.07Z" style="fill:#44474f"/><path d="M295.56,154.55c-3.53-3.68-9.3-4-13-4.29a6.38,6.38,0,0,1,3-1c-2.24-.63-7.63,1-7.63,1s-18-12.39-30.26,11.81c0,0,1.79-1.71,4.19-3.61-7.06,13.91-4.7,36.66,11.08,42.69C273.16,205.08,331.74,192.23,295.56,154.55Z" style="fill:#33353b"/><path d="M284.63,239.83c.1.06-10.91,4.08-18.39.95-7-2.93-10.58-13-10.48-13,3.17-.21,4.62-4.35,6.92-22.6l1.36.45,22.89,7.7s-1.5,7.32-2.42,14.29C283.74,233.44,283.38,239,284.63,239.83Z" style="fill:#c97e67"/><path d="M286.93,213.31s-1.5,7.32-2.42,14.29c-13.09-2.08-18.49-15-20.47-22Z" style="fill:#b2604d"/><path d="M261.94,202.74S256.46,191,256,181.44c-.32-6.8,6.26-31,30.55-24.23a33.87,33.87,0,0,1,13.26,7.08c4.9,4.32,11.64,13.16.19,33.53l-3.2,7Z" style="fill:#33353b"/><path d="M290.46,220.47s-31.17-3.52-28.68-22.89.15-32.88,20.15-31.46,22.92,9.32,23.66,16S298.63,220.89,290.46,220.47Z" style="fill:#c97e67"/><path d="M292.51,264.35c-.26-2.27,4.61-3.33,5.5-1.22,1.66,4,1.48,8.66,1.85,12.48,1.07,10.88-3.24,25-3.24,25Z" style="fill:#33353b"/><path d="M306.06,171.22c-4-6.44-7.84-5.65-10.1-4.16-5.42-10.92-28.55.85-28.55.85a37.34,37.34,0,0,1-14.94,20.3s5.22,4.23,18.72,2.57c10.63-1.31,20-15,23.5-20.75,1.63,1.88,5.05,6.19,5.73,10.06.91,5.14.29,15.38,3.3,15.42C303.72,195.51,312.14,180.89,306.06,171.22Z" style="fill:#33353b"/><path d="M285.07,207.83s.26,2.54,6.43,2.95c0,0,5.18.35,5.38-2.37C296.88,208.41,292.14,205.84,285.07,207.83Z" style="fill:#fff"/><path d="M347.76,361.07a6.36,6.36,0,0,1-.66,1.48c-3.13,5.05-54.73,5.3-60.63,1.06-2.63-1.89-3.48-34.33,3.78-62.31,1.72,16.76-1.43,50.28,7.34,53C307.54,357.41,334.7,357.48,347.76,361.07Z" style="fill:#33353b"/><path d="M298.35,302.18c-20.48,59.14-11.15,69.83-18.47,75,0,0-6.14,1.77-6.18,1.8-7.6,5-6.84-2.16-29.5,4.36-10.79,3.1-24.66,7.28-36.55,9.26a70.89,70.89,0,0,1-12.33,1.14c-7-.08-12-1.95-13.06-6.82-3.13-14.17,24.94-47.07,22.27-72.35,0-.22-.05-.44-.06-.65a26.94,26.94,0,0,1,.66-7.35c2.87-13.54,14.09-32.31,25.24-48.12,12.31-17.45,24.54-31.32,25.39-30.65,24.07,18.85,28.09,6.29,28.09,6.29S305.34,282,298.35,302.18Z" style="fill:#44474f"/><path d="M275.88,378.35h0c-7.59,5-9-1.57-31.68,4.95-10.79,3.1-24.66,7.28-36.55,9.26-6,.27-10.45.6-12.33,1.14-7-.08-12-1.95-13.06-6.82-3.13-14.17,24.94-47.07,22.27-72.35,0-.22-.05-.44-.06-.65a22.78,22.78,0,0,1,.66-7.35c2.58-10.24,11.69-20.52,22.48-35.83,5,6.87,49.43,5.42,31.3,64.55C253.35,353.37,275,363.62,275.88,378.35Z" style="fill:#33353b"/><path d="M273.37,381.17s9.88-1,14,1.32,12.34,8.05,11.21,10.38-11.7,2.29-15.77-.72-7.72-.34-12.85-2.82S273.37,381.17,273.37,381.17Z" style="fill:#c97e67"/><path d="M255.76,227.76s-35.43-4.11-44,12.13-14.38,76.48-7.45,95.72,56.43,50.45,62.15,52.19S277,381,276.92,380s-49.44-52.77-48.6-57.37S255.76,227.76,255.76,227.76Z" style="fill:#44474f"/></g><polygon points="1010.06 877.33 1000.68 916.81 986.64 916.73 986.13 877.33 1010.06 877.33" style="fill:#c97e67"/><polygon points="891.94 879.01 865.26 916.81 854.87 903.47 870.92 873.81 891.94 879.01" style="fill:#c97e67"/><path d="M961.29,358.46c4.85-2.75,10.66-3,14.72-2.81a7,7,0,0,0-3.11-1.48c2.52-.37,8.15,2.13,8.15,2.13,35.05-13.51,40.56,38.1,39.82,50.09s11.78,15.9,30,25.35c34.79,18,37.85,42.16,37.85,42.16-.28.16-.56.34-.86.55-1.73-2.92-5.28-8.42-8.28-9.24a121.77,121.77,0,0,1,4.82,11.74c-10.26,7.81-29.46,25.11-42.85,37.37.06-2.39,0-5.8-.91-7.6l-1.65,10c-7.16,6.58-12.1,11.22-12.1,11.22.88-9.69-43.82-60.82-67.14-76.14-5.68-8.36-7.7-23.12-7.85-24.29,1,11.71,3,18.28,4.77,22C936.94,431.27,948.44,365.76,961.29,358.46Z" style="fill:#33353b"/><path d="M961.15,452.52c-.12.06,11.26,6,19.82,3.62,8-2.19,13.31-12.63,13.2-12.65-3.41-.68-4.4-5.36-4.32-25.5l-1.55.31-25.91,5.13s.59,8.15.61,15.84C963,445.72,962.62,451.84,961.15,452.52Z" style="fill:#c97e67"/><path d="M962.39,423.43s.59,8.15.61,15.84c14.5-.41,22.16-13.64,25.3-21Z" style="fill:#b2604d"/><path d="M991,415.47s7.6-12,9.42-22.27c1.31-7.33-2.43-34.5-29.73-30.59a37.08,37.08,0,0,0-15.39,5.82c-5.93,4-14.48,12.64-4.91,36.36l2.48,8Z" style="fill:#33353b"/><path d="M859.1,893.1l13.74.42,14.86.46s34.35-38.24,53.62-99.54c.45-1.42.92-2.87,1.42-4.33,10.54-30.74,32.4-69.33,43.92-104.26q2.75-8.34,5-15.75.71-2.39,1.37-4.69c8.49-29.49,10.94-48.85,13.21-69.54l-83.17.66S909.6,737.81,859.1,893.1Z" style="fill:#f4925d"/><path d="M934.67,548.74c.21,39.58-5.81,56.56-5.81,56.56s35.62,18.09,77.94,4.77c.5-.15,31.83-6.44,31.83-6.44-.7-1.6-9.35-29-10-30.45-8.93-19.19-10.16-28.5-11.22-34.4a125.31,125.31,0,0,1-1-33.16,266,266,0,0,1,10.26-52.07c-11.53-2.63-22.33-7.24-34.33-11.74-2.77,3.44-11.21,7-18.53,6.87-8.43-.18-11.16-3.79-10.72-7.73-9,5-16.16,9.72-16.16,9.72-7.63,13.26-23.12,26.14-24.24,46.49C922.34,502.16,934.66,547.63,934.67,548.74Z" style="fill:#ff929f"/><path d="M886.38,489.94c12.21-14.27,43.85-45.2,76.49-49L934.7,495.83s-1.58,9.4-9.93,14.88c-20.43,13.43-46.41,19.37-46.41,19.37s-17.59-7.68-41.64-25.3c-7.55-5.53-20.82-26.63-20.82-26.63l3.58-12s22.52,12.6,30.57,16.23c4.58,2.07,15.14,7,22.57,10.5A11.61,11.61,0,0,0,886.38,489.94Z" style="fill:#fffff8"/><path d="M957.55,430.7s34.31.57,34.33-20.8,4.47-35.7-17.44-37-26.17,6.88-27.91,14S948.62,430,957.55,430.7Z" style="fill:#c97e67"/><path d="M958.82,372.41s9.39,25.08,23.81,28.79,20.67-.16,20.67-.16a40.83,40.83,0,0,1-13.36-24.12S965.9,360.48,958.82,372.41Z" style="fill:#33353b"/><path d="M961.14,374.45s-7,5.6-8.72,11-2.48,16.65-5.75,16.27c0,0-7.07-17.05.88-26.69C956,364.85,961.14,374.45,961.14,374.45Z" style="fill:#33353b"/><path d="M819.48,466.17s-4.84-17.43-24-15c-2.2.68-8.63,3.25-4.52,10.13,3,5.07,4.34,2.45,9.1,9.27S810,479,815.9,478.15Z" style="fill:#c97e67"/><path d="M1001.16,914.61a38,38,0,0,0,1.78,16.19s2.3,10.47-8,10.66-12.85-.78-11.68-7.2,3.39-17.53,3.39-17.53Z" style="fill:#c97e67"/><path d="M982.28,945.93a7.32,7.32,0,0,0,.65.35h20.18a4.49,4.49,0,0,0,.57-.35c1.17-5.25-.73-15.14-.73-15.14-11.69,10.71-19-.26-19-.26C982.06,935.1,982.28,945.93,982.28,945.93Z" style="fill:#33353b"/><path d="M830,935.31s19-21.11,24.86-31.84L869,910.71,837.4,940.39l-7.4-1Z" style="fill:#c97e67"/><path d="M818.21,946.28h26c2.51-1.87,4.85-6.21,7.76-12,1.55-3.1,5-4.81,8.61-5.75v17.58H866l5.11-18.69c3.36-6.19.27-11.8-2.11-16.68-2.75,0-10.16,1.88-24.21,17.71-4.62,5.19-9.72,7.05-14.78,6.89l-.2.11C821.33,939.23,818.91,944,818.21,946.28Z" style="fill:#33353b"/><path d="M963,441s-19.86,49-20.44,59-2.33,162.3-2.33,162.3,1.16,7-12.26,4.09-16.93-5.84-16.93-5.84,12.84-94,9.34-126.69,26.85-86,26.85-86Z" style="fill:#fffff8"/><path d="M872.84,893.52l14.86.46s34.35-38.24,53.62-99.54c.45-1.42.92-2.87,1.42-4.33,10.54-30.74,32.4-69.33,43.92-104.26q2.75-8.34,5-15.75.71-2.39,1.37-4.69l-12.25-9.29S944,715.67,932.58,771.71C922.69,820.38,883.09,879,872.84,893.52Z" style="fill:#ea7e4e"/><path d="M979.46,776.93c-.21,27.25,1.17,89.9,4.72,115.84h13.17c7.28,0,10.91-.1,10.91-.1,8.9-45.1,15.24-82.42,19.85-114.58,3.78-26.38,7.15-49,9.73-68.48s4.42-36,5.06-49.88c.1-2.18.18-4.31.22-6.37s.05-4.08,0-6l-71.86-7C972.19,688.06,979.58,761.09,979.46,776.93Z" style="fill:#f4925d"/><path d="M997.35,892.77c7.28,0,10.91-.1,10.91-.1,8.9-45.1,15.24-82.42,19.85-114.58,3.78-26.38,7.15-49,9.73-68.48s4.42-36,5.06-49.88l-26.37,15.51s16.83,5.94,10.41,50.9S1006.29,886.41,997.35,892.77Z" style="fill:#ea7e4e"/><path d="M994,659.29s5.06,18.29,22.57,16S1059,662.4,1059,662.4s-7.48-23.65-16.79-54.72c-11.27-37.61-25.21-86.1-31.79-116.69a191.12,191.12,0,0,1-3.57-20.85L992.27,442s-21.67,48.62-22.83,60.88S994,659.29,994,659.29Z" style="fill:#fffff8"/><path d="M994.73,528.52c.78,19.85,5.45,58.38,47.1,79a2.49,2.49,0,0,0,.33.16c-11.27-37.61-25.21-86.1-31.79-116.69C1002.72,502.42,994.31,517.59,994.73,528.52Z" style="fill:#fff2e2"/><rect x="770.81" y="362.46" width="18.57" height="73.86" transform="translate(-53.93 668.59) rotate(-45)" style="fill:#e84674"/><rect x="914.68" y="356.49" width="52.64" height="407.61" rx="23.08" transform="translate(-120.58 829.5) rotate(-45)" style="fill:#33353b"/><path d="M444.68,64c-85.3,85.3-85.3,223.61,0,308.91s223.61,85.31,308.92,0,85.3-223.61,0-308.91S530-21.33,444.68,64Zm291.9,291.9c-75.91,75.9-199,75.9-274.88,0s-75.91-199,0-274.89,199-75.9,274.88,0S812.49,280,736.58,355.88Z" style="fill:#33353b"/><path d="M1011.44,501,992.27,442c.05,0,24.22,7.19,36.38,13.33,0,0,7.59,9.8,12.3,32.4,0,0,5,54.27-6.13,74.12,0,0-35,7-91.07-12.26V536.69s61.3,3.21,73.85,4.67Z" style="fill:#c97e67"/><path d="M992.27,442s35.55,2.5,44.11,21.57,11.29,82.51.39,101.19c0,0-15,4.28-41.54-.68l-1-.19s-8.47-20.73-.88-24.81c0,0,22.38,1.16,20-6.23S992.27,442,992.27,442Z" style="fill:#fffff8"/><path d="M950,540.11s-4.88-5.92-5.92-12-4.28-10.53-12.7-11.63-12.06-1.23-12,1.14,6.89,19,19,28.87S950,540.11,950,540.11Z" style="fill:#c97e67"/></g></g></svg>