<svg id="圖層_1" data-name="圖層 1" xmlns="http://www.w3.org/2000/svg" viewBox="0 0 916.74 125.73"><path d="M145.91,12.36q1.46-2.25,3.39-1.19l2.85,1.59q2.19,1.26.8,3.59-3.45,5.71-10.89,12-2.19,1.66-4-.6l-1.59-2.12c-1.11-1.46-1.06-2.68.13-3.65Q143.12,16.74,145.91,12.36Zm4.85,14.35a2.16,2.16,0,0,1,3.19-.93,27.9,27.9,0,0,1,2.78,1.66,2.07,2.07,0,0,1,.93,3.18,44.25,44.25,0,0,1-5,7,5.19,5.19,0,0,0-1.46,3.19V70.14a1.79,1.79,0,0,1-2,2.06h-3.65a1.8,1.8,0,0,1-2.06-2V48.42c0-1.1-.46-1.35-1.39-.73s-2,.51-3.06-.73l-2.46-3.19q-1.4-1.79.8-3.38A61.57,61.57,0,0,0,150.76,26.71Zm7.57,6.17c0-1.41.62-2.12,1.86-2.12h34.6a1.78,1.78,0,0,1,2.05,2V36.4c0,1.38-.66,2.06-2,2.06h-9.43c-1.1,0-1.66.53-1.66,1.59V64.29q-.19,6.45-5.64,7.37-3.33,1.07-12.15.07A2.74,2.74,0,0,1,163.51,69L163,65.49c-.23-1.51.42-2.08,1.92-1.73a32.68,32.68,0,0,0,9.1.67,3.09,3.09,0,0,0,1.86-2.66V40.12c0-1.11-.53-1.66-1.59-1.66H160.39c-1.38,0-2.06-.66-2.06-2ZM161.78,15a1.79,1.79,0,0,1,2-2.06h27.89c1.38,0,2.06.66,2.06,2v3.39a1.79,1.79,0,0,1-2,2.06h-28a1.76,1.76,0,0,1-2-2Z"/><path d="M236,12.7c.31-1.42,1.11-1.93,2.39-1.53a28.42,28.42,0,0,1,3.26.93A2.19,2.19,0,0,1,243.33,15l-.67,2.79c-.22,1.06.2,1.6,1.26,1.6H258.6a1.79,1.79,0,0,1,2.06,2v3.38c0,1.38-.53,2.06-1.6,2.06s-1.68.67-1.85,2a70.85,70.85,0,0,1-6.31,23,3.06,3.06,0,0,0,.73,3.58A45,45,0,0,0,260.26,63q1.92,1.26.53,3.32l-2.26,3.45c-.93,1.38-2,1.58-3.32.6a85.27,85.27,0,0,1-8.56-8.1q-1.47-1.72-3.19.2a44.76,44.76,0,0,1-9.76,8.1q-2.32,1.34-3.46-.86c-.62-1-1.17-2-1.66-3.06a2.28,2.28,0,0,0-2.85-1.26q-12,2.6-22.91,4.12a1.81,1.81,0,0,1-2.39-1.73,35.94,35.94,0,0,1-.6-3.92q-.33-2.05,1.26-2.19a1.79,1.79,0,0,0,1.6-1.92V32a1.79,1.79,0,0,1,2-2.06h3.38c1.38,0,2.06.66,2.06,2v26.9q0,1.59,1.86,1.53c1.24-.27,1.86-.93,1.86-2V22.86c0-1.11-.53-1.66-1.59-1.66h-8.77a1.8,1.8,0,0,1-2.06-2V15.82a1.79,1.79,0,0,1,2-2.06H228a1.79,1.79,0,0,1,2.06,2v3.39a1.8,1.8,0,0,1-2,2.06h-4.84c-1.11,0-1.66.53-1.66,1.59v9.76c0,1.11.53,1.66,1.59,1.66H226c1.33,0,2,.13,2,.4s.55-.24,1.26-1.53A130.86,130.86,0,0,0,236,12.7Zm-5.91,28.15c-1.42-1.1-2.12-1.26-2.12-.46s-.67,1.26-2,1.26h-2.78c-1.11,0-1.66.53-1.66,1.59V57.05c0,1.07.66,1.49,2,1.27a19.78,19.78,0,0,0,2.85-.53A2,2,0,0,1,229,59.64l.4,2.46c.22,1.15,1,1.28,2.26.4a39.86,39.86,0,0,0,7.57-7.11q1.39-1.78.6-3.18a72.65,72.65,0,0,1-4.32-10.43c-.4-1-.89-1-1.46-.07s-1.39,1.07-2.59.14ZM249.64,28.5c.17-1.15-.27-1.73-1.33-1.73H241.8c-1.06,0-1.88.67-2.46,2a5.28,5.28,0,0,0,.33,4.64A79,79,0,0,0,244.06,44c.7,1.33,1.35,1.33,1.92,0A58.66,58.66,0,0,0,249.64,28.5Z"/><path d="M266,14.62c0-1.41.62-2.12,1.86-2.12h18.66c1.33,0,1.77.66,1.33,2q-3.19,8.29-6.18,16.6a4.12,4.12,0,0,0,.66,4,26,26,0,0,1,4.72,17q-1.12,9.24-10,8.7a2.39,2.39,0,0,1-2.52-2l-.4-1.86c-.4-1.06-.6-1.1-.6-.13V70.14a1.79,1.79,0,0,1-2,2.06H268a1.79,1.79,0,0,1-2.06-2Zm11.42,6.91c.35-1.15-.18-1.73-1.59-1.73s-2.26.53-2.26,1.59V31c0,1.51.24,1.55.73.14Q275.73,26.38,277.39,21.53Zm-2.12,16.2c-1.16-1.42-1.73-1.61-1.73-.6V50.55c0,1.06.66,1.81,2,2.25,2.35,1,3.65.29,3.92-2Q280,44.63,275.27,37.73Zm14.07,4.78c0-1.41.62-2.12,1.86-2.12h31.15a1.79,1.79,0,0,1,2.06,2v3.25a1.79,1.79,0,0,1-2,2.06H317.3c-1.11,0-1.66.53-1.66,1.6V62.63c.09,1.2.89,1.62,2.39,1.26.27-.13.6-.86,1-2.19l.2-3.52q.06-1.86,2.19-.66l2.79,1.59A3.19,3.19,0,0,1,326,62.3,33.58,33.58,0,0,1,325,67q-.93,3.85-3.71,4a19.44,19.44,0,0,1-9.7-.4q-3.31-1.2-3.72-6.37V49.35c0-1.1-.53-1.66-1.59-1.66h-2.19c-1.07,0-1.66.67-1.8,2a32.51,32.51,0,0,1-2.39,10A25.56,25.56,0,0,1,289.74,71q-2,1.2-3.58-.8l-1.6-2.12q-1.59-2.13.27-3.39,6.3-4.11,8.43-9.83a28,28,0,0,0,1.4-5.57,1.35,1.35,0,0,0-1.53-1.6H291.4a1.79,1.79,0,0,1-2.06-2ZM302,13c0-1.42.62-2.12,1.86-2.12h4.31a1.79,1.79,0,0,1,2.06,2v1.39c0,1.11.53,1.66,1.6,1.66h11.55a1.8,1.8,0,0,1,2.06,2V28.63a1.79,1.79,0,0,1-2,2.06h-3.26c-1.1,0-1.66.53-1.66,1.6v.92c0,1.38-.66,2.06-2,2.06H297a1.79,1.79,0,0,1-2.06-2v-.93c0-1.1-.53-1.66-1.59-1.66h-3.59a1.79,1.79,0,0,1-2.06-2V17.94a1.8,1.8,0,0,1,2-2.06h10.69c1.1,0,1.66-.53,1.66-1.59Zm15.74,12a1.44,1.44,0,0,0-1.6-1.66H297.05c-1.11,0-1.66.53-1.66,1.59v1.27c0,1.1.53,1.66,1.59,1.66h19.13a1.45,1.45,0,0,0,1.66-1.6Z"/><path d="M331.58,13.43c0-1.38.64-2.06,1.92-2.06h53.92c1.38,0,2.06.66,2.06,2V69.87a1.79,1.79,0,0,1-2,2.06H384.1c-1.37,0-2.06-.29-2.06-.86s-.53-1-1.59-1H340.54c-1.11,0-1.66.29-1.66.86s-.66,1-2,1h-3.26a1.78,1.78,0,0,1-2.05-2Zm39.84,6.84c1.15-1.15,1.2-1.73.13-1.73h-31c-1.11,0-1.66.53-1.66,1.59V61.3c0,1.11.53,1.66,1.59,1.66h20.26c2,.54,2-.35-.2-2.65-1.11-1.64-1.46-2.61-1.06-2.92l.66-.6c0-.18-.73-.18-2.06,0l-13.94,2.06a2.21,2.21,0,0,1-2.73-1.93L341,54.66c-.27-1.54.33-2.39,1.79-2.52q8.43-.86,16.87-2a1.77,1.77,0,0,1,2.25,1.73l.14,1.19c.13,1.28.73,1.39,1.79.33l.93-1.06a3.62,3.62,0,0,0,.6-3.59,79,79,0,0,1-3-15.93,1.62,1.62,0,0,0-1.79-1.6H342.4a1.79,1.79,0,0,1-2.06-2V26.71a1.79,1.79,0,0,1,2-2.06H360c1.06,0,1.59-.67,1.59-2V21.59a1.76,1.76,0,0,1,2-2h2.59a1.79,1.79,0,0,1,2.06,2,4.6,4.6,0,0,1,.07,1.33c.09,1.15.8,1.73,2.12,1.73,1.51,0,1.77-.49.8-1.46S370.36,21.33,371.42,20.27Zm-29.55,15c0-1.41.62-2.12,1.86-2.12h15.4c1.38,0,2.06.66,2.06,2V46.5a1.78,1.78,0,0,1-2,2H343.93a1.79,1.79,0,0,1-2.06-2Zm12.82,5.58a1.45,1.45,0,0,0-1.6-1.66h-2.92c-1.11,0-1.66.53-1.66,1.6s.53,1.66,1.59,1.66H353A1.45,1.45,0,0,0,354.69,40.85ZM382,58.38c0-1.5-.28-1.46-.86.14-1,2.43-2.63,3.63-5,3.58q-2.38.19-5.31-2.52c-1-1.24-2.08-1.2-3.32.13L366,61.3c-1.19,1.11-1.26,1.66-.19,1.66h14.6c1.11,0,1.66-.53,1.66-1.59Zm0-38.11c0-1.15-.5-1.73-1.52-1.73h-2.13c-1.37,0-1.44.53-.2,1.59s1.53,2,.87,2.92c-.84,1.07-.76,1.6.26,1.6,1.2,0,1.8.66,1.8,2v2.52a1.79,1.79,0,0,1-2,2.06h-8.7c-1.06,0-1.57.67-1.52,2A57.12,57.12,0,0,0,370,41.45c.26,1.19.71,1.06,1.33-.4l1.92-5.64c.4-1.46,1.35-1.93,2.86-1.4l2,.73a2.19,2.19,0,0,1,1.53,2.79,75.39,75.39,0,0,1-4.92,12.55,3.23,3.23,0,0,0-.26,3.19c.8,1.11,1.3,1.68,1.53,1.73.26-.18.44-1,.53-2.39v-1.4c0-1.33.66-1.81,2-1.46l2,.53c1.06.27,1.59-.13,1.59-1.19Z"/><path d="M421.42,12.7c0-1.42.64-2.13,1.93-2.13h4.71a1.79,1.79,0,0,1,2.06,2v.93c0,1.11.53,1.66,1.59,1.66H453.3a1.79,1.79,0,0,1,2.06,2V26a1.8,1.8,0,0,1-2,2.06h-3.52a1.79,1.79,0,0,1-2-2V23.85a1.45,1.45,0,0,0-1.6-1.66H405.75c-1.11,0-1.66.53-1.66,1.6v2.45c0,1.38-.66,2.06-2,2.06h-3.52a1.79,1.79,0,0,1-2.06-2v-9.1a1.79,1.79,0,0,1,2-2.06h21.25c1.11,0,1.66-.53,1.66-1.59Zm-15.34,15a1.76,1.76,0,0,1,2-2h35.8a1.79,1.79,0,0,1,2.06,2v3.12a1.79,1.79,0,0,1-2,2.06h-14a3.73,3.73,0,0,0-2.26.53c-.57.36-.28,1.11.87,2.26a27.48,27.48,0,0,1,3.25,4.78c.44,1,1.4,1.15,2.86.53a58,58,0,0,0,9.56-5.24,2.67,2.67,0,0,1,3.85.4l1.79,2q2.27,2.46.07,3.78a78.47,78.47,0,0,1-11.75,6.18c-1.07.49-.91,1.31.46,2.46a101.29,101.29,0,0,0,15.94,10.16q2.13,1.13.93,3l-1.86,2.65c-.93,1.37-2.06,1.71-3.39,1A91.44,91.44,0,0,1,437,58.52q-2-1.67-2.19.33-.27,7-3.66,10.62A9.91,9.91,0,0,1,425.87,72a23.75,23.75,0,0,1-8.83-.73,3,3,0,0,1-2.33-2.53l-.53-2.92c-.22-1.15-1-1.46-2.32-.93a73.49,73.49,0,0,1-10.09,3.52A2.41,2.41,0,0,1,398.71,67l-1.33-2.66q-1.26-2.52.87-3.06a95.47,95.47,0,0,0,26.89-11.55,2.35,2.35,0,0,0,1.13-2.52c-.27-.8-1.13-.78-2.59.06a83.86,83.86,0,0,1-20.79,8.83,2.7,2.7,0,0,1-3.45-1.46,28.82,28.82,0,0,1-1.39-2.78c-.71-1.33-.36-2.17,1.06-2.53a92.1,92.1,0,0,0,21.45-8.7c1-.75,1.28-1.37.8-1.86s-1.4-.4-2.73.27a102.82,102.82,0,0,1-14.81,5.64,3,3,0,0,1-3.58-1.59l-1.53-2.66c-.75-1.28-.46-2.08.86-2.39a105.92,105.92,0,0,0,14.48-4.31c1.33-.58,1.31-.87-.07-.87h-5.84a1.79,1.79,0,0,1-2.06-2ZM427.2,58.52c0-1.11-.6-1.24-1.93-.4a51.3,51.3,0,0,1-7.77,4.31c-1.06.53-.93,1,.4,1.4a16.62,16.62,0,0,0,6.91.53Q427.06,62.64,427.2,58.52Z"/><path d="M462.19,37.33a1.76,1.76,0,0,1,2-2h18.53a1.79,1.79,0,0,1,2.06,2,12.54,12.54,0,0,1-.4,5.05A68.61,68.61,0,0,1,480.52,53a34.83,34.83,0,0,1-13.81,15.14c-1.64.76-2.84.42-3.59-1l-1.72-3.26c-.76-1.32-.4-2.34,1.06-3q9.77-5.25,13.41-16.6c.27-1.06-.13-1.6-1.19-1.6H464.25a1.79,1.79,0,0,1-2.06-2Zm6.64-12.42c0-1.41.64-2.12,1.93-2.12h23.11a1.79,1.79,0,0,1,2.06,2v6.84c-.31,1.06.08,2.33,1.19,3.79.67,1.1,1.66,1.21,3,.33a57.89,57.89,0,0,0,8.57-7.51c1.41-1.63,2.81-1.9,4.18-.79L515,29.16c1.37,1.2,1.54,2.44.53,3.72a51.6,51.6,0,0,1-11.36,9.9q-1.59,1.06-.33,2.85A53.22,53.22,0,0,0,519.24,60c1.63.93,2.08,2.08,1.32,3.45L518.64,67a2.13,2.13,0,0,1-3.39.93q-8.43-5.38-16.53-16.54l-2.46-3.72c-.22.05-.33.63-.33,1.73V64q0,7.09-7.11,8.17a26.66,26.66,0,0,1-7.24-.67A3,3,0,0,1,479,69.14l-1.06-4.58c-.22-1.33.33-1.77,1.66-1.33a24.43,24.43,0,0,0,5.05,1.06c2.7.22,3.8-1,3.32-3.58V31.89c0-1.11-.53-1.66-1.6-1.66H470.83a1.77,1.77,0,0,1-2-2Zm8.57-12.08c.8-1.51,1.79-2.15,3-1.93q8.49,1.53,17.86,3.92c1.33.35,1.71,1.24,1.13,2.66a23.15,23.15,0,0,0-1.13,2.65q-1,2.32-3.12,1.73-7.44-2.19-17.73-4.32c-1.51-.26-1.88-1.13-1.13-2.59A17.5,17.5,0,0,1,477.4,12.83Z"/><path d="M533.11,13.69c.67-1.5,1.66-2,3-1.46l2.66,1.2a1.94,1.94,0,0,1,1,2.92L536,23.59c-.67,1.19-.76,2-.27,2.45s1.29.09,2-1.19L540,19.93c.66-1.46,1.77-1.83,3.32-1.13l2.52,1.07q2,.93.8,3.05-2.32,4.38-4.91,8.77c-.58,1-.09,1.28,1.46.93a2.2,2.2,0,0,1,2.85,1.59,71.34,71.34,0,0,1,2.06,9.5A2.32,2.32,0,0,1,546,46.43l-2.06.46c-1.42.36-2.17.12-2.26-.73s-.42-1.41-.86-1.32-.74.77-.74,1.79V69.87a1.79,1.79,0,0,1-2,2.06h-2.72a1.79,1.79,0,0,1-2.06-2V56.79c0-1-.2-.93-.6.26L531.25,63c-.4,1.73-1.28,2.4-2.65,2l-2.06-.67a2,2,0,0,1-1.46-2.65A96.13,96.13,0,0,0,527.33,51a1.93,1.93,0,0,1,2.59-1.8,12.38,12.38,0,0,1,1.8.47q1.59.33,1.59-1.53c0-1.24-.66-1.79-2-1.66l-2,.27q-2.4.25-2.79-1.86a23.62,23.62,0,0,1-.6-3.06c-.27-1.5.2-2.3,1.39-2.39a4,4,0,0,0,3.33-2.06L532,35.14a2.19,2.19,0,0,0-.59-3L526.8,28q-2.19-2-.86-3.79l1-1.33c1-1.28,1.66-1.86,1.92-1.72s.89-.34,1.6-1.66C531.43,17.59,532.32,15.64,533.11,13.69Zm7,23.18c-.26-1.29-.75-1.35-1.46-.2s-.77,1.88.2,1.79S540.37,37.84,540.15,36.87ZM544.47,49c1.41-.48,2.3,0,2.65,1.33.67,2.79,1.24,5.65,1.73,8.57.31,1.68-.22,2.7-1.59,3l-2.13.6c-1.33.44-2.08,0-2.26-1.33a68.29,68.29,0,0,0-1.59-8.83c-.35-1.42.09-2.32,1.33-2.72Zm5.31-5.71a1.79,1.79,0,0,1,2-2.06h31a1.79,1.79,0,0,1,2.06,2V62.43c0,1.38-.66,2.06-2,2.06H582c-1,0-.93.2.26.6l2.79.46c1.42.23,1.68,1.13.8,2.73l-.73,1.33c-.93,1.5-2.11,2.08-3.52,1.72a67.5,67.5,0,0,1-7.51-2.65q-2.58-1.2-1.26-2.59c.93-1.07.87-1.6-.2-1.6H561.73c-1.06,0-1.15.67-.26,2s.73,2.24-.6,2.73c-3.37,1.1-6.46,2-9.3,2.59a2.65,2.65,0,0,1-3.05-1.6l-.8-1.52c-.8-1.51-.42-2.39,1.13-2.66l4-.8c1.69-.48,1.82-.73.4-.73h-1.46a1.76,1.76,0,0,1-2-2ZM563.86,11.9c0-.71.62-1.06,1.86-1.06h3.19c1.37,0,2.05.31,2.05.93s.54,1,1.6,1h12a1.79,1.79,0,0,1,2.06,2v1.46a1.79,1.79,0,0,1-2,2.06h-12c-1.06,0-1.61.18-1.66.53s.6.54,1.66.54h9.57a1.79,1.79,0,0,1,2.06,2v1.19a1.79,1.79,0,0,1-2,2.06H552.37a1.79,1.79,0,0,1-2.06-2v-1.2a1.79,1.79,0,0,1,2-2.05h9.9c1.06,0,1.61-.18,1.66-.54s-.6-.53-1.66-.53H549.71a1.78,1.78,0,0,1-2.05-2V14.82a1.79,1.79,0,0,1,2-2.06H562.2C563.3,12.76,563.86,12.47,563.86,11.9Zm-16,15.8a1.77,1.77,0,0,1,2-2h34.53a1.79,1.79,0,0,1,2.06,2V38a1.79,1.79,0,0,1-2,2H549.91a1.79,1.79,0,0,1-2.06-2Zm11,5.32c0-1.55-.62-2.33-1.86-2.33a1.88,1.88,0,0,0-2.12,2.13q0,2.25,1.92,2.25A1.82,1.82,0,0,0,558.81,33Zm19.13,14q0-.6-1.53-.6H558.28c-1.06,0-1.62.18-1.66.53s.6.53,1.66.53h18C577.34,47.49,577.89,47.34,577.94,47Zm0,5.91c0-.44-.49-.67-1.46-.67h-18.2c-1.06,0-1.62.18-1.66.53s.6.54,1.66.54h18C577.34,53.34,577.89,53.2,577.94,52.94Zm0,5.77c0-.39-.53-.59-1.6-.59H558.28c-1.06,0-1.62.17-1.66.53s.6.53,1.66.53h18C577.34,59.18,577.89,59,577.94,58.71ZM568.84,33c0-1.55-.62-2.33-1.86-2.33a1.85,1.85,0,0,0-2.06,2.13c0,1.5.64,2.25,1.93,2.25A1.79,1.79,0,0,0,568.84,33Zm10.62,0c0-1.55-.48-2.33-1.46-2.33h-1.33c-1.1,0-1.66.71-1.66,2.13a2,2,0,0,0,2.2,2.25C578.71,35.07,579.46,34.39,579.46,33Z"/><path d="M633.92,12.7c1.46-1.24,2.78-1.38,4-.4a19.11,19.11,0,0,1,1.86,1.52c1.19,1.07,1.13,2.22-.2,3.46l-3.39,2.59c-1.24.79-1.3,1.52-.2,2.19a3.52,3.52,0,0,0,3.66-.4,37.25,37.25,0,0,0,3.45-2.72c1.33-1.33,2.63-1.48,3.92-.47l2.06,1.66q2.06,1.61.19,3.46l-2.45,1.92c-1.11.75-1,1.42.4,2l3.25,1.33c1.73.62,2.21,1.6,1.46,2.92a33.44,33.44,0,0,0-1.66,2.93c-.75,1.41-1.77,1.88-3,1.39l-4.39-1.93c-1.15-.57-1.72-.35-1.72.67v1.66c0,2.17.9,2.83,2.72,2a3.77,3.77,0,0,0,.4-1.26c.09-.71.79-.78,2.12-.2l2.59,1.2q2.6,1.26,2.26,3.25a8.44,8.44,0,0,1-.86,2.12c-.67,1.07-2,1.69-3.85,1.86a31.62,31.62,0,0,1-8.7-.26q-3.66-1-3.79-4.05a16.58,16.58,0,0,1-.33-3.92c0-1.11-.53-1.66-1.59-1.66H630.4c-1.07,0-1.73.66-2,2a10.56,10.56,0,0,1-5.11,8c-1.06.79-.95,1.19.33,1.19h22.91a1.79,1.79,0,0,1,2.06,2c.27,2.17,0,3.72-.73,4.65a38.83,38.83,0,0,1-5,6.84c-1.06,1.06-.91,1.82.46,2.26l5.91,1.39c1.69.27,2.26,1.09,1.73,2.46l-1.33,3.45a2.36,2.36,0,0,1-2.85,1.73,46.25,46.25,0,0,1-11.36-3.78,3.91,3.91,0,0,0-3.58.33,46,46,0,0,1-10.23,3.65,2.55,2.55,0,0,1-3-1.46,24.33,24.33,0,0,1-1.4-2.66q-1.33-2.39.86-2.72a57.2,57.2,0,0,0,7.84-2.12c1.06-.45,1-1.35-.2-2.73a37.17,37.17,0,0,1-3.39-4.91,2.87,2.87,0,0,0-2.45-1.59c-1,0-1.53-.67-1.53-2V48.82c0-1.33.2-2,.6-2.06s.28-.68-.47-2.06l-.73-1.39c-.75-1.2-1.13-1.11-1.13.26v2.06c0,1.38-.66,2.06-2,2.06H604A1.84,1.84,0,0,0,602,49.42c-.09,1.19.4,1.79,1.46,1.79h12a1.7,1.7,0,0,1,1.93,2q-.66,10.3-3.45,15.28-4.26,4.84-12.16,3.12l-.79-.07a3.09,3.09,0,0,1-2.53-2.46c-.39-1.28-.73-2.56-1-3.85s.26-1.88,1.59-1.66a22.61,22.61,0,0,0,8.3.07A4.93,4.93,0,0,0,609.74,60c.27-1.24-.09-1.86-1.06-1.86h-6.11c-1.11,0-1.68.22-1.73.66s-.79.6-2.12.6h-3.39c-1.33,0-1.92-.67-1.79-2l1.59-14c.27-1.68,1.07-2.52,2.39-2.52h10.1c1.1,0,1.66-.71,1.66-2.13s-.53-2.25-1.6-2.25h-3c-1.33,0-2-.2-2.06-.6s-.69-.31-2.06.26c-1.86.76-3.74,1.42-5.64,2a2.59,2.59,0,0,1-3.19-1.66l-.53-1.33c-.66-1.68-.31-2.75,1.06-3.19q2.73-.93,5.65-2.13,1.46-.66-.6-2.85c-1.37-1.28-1.18-2.52.6-3.72l2.06-1.46a3.07,3.07,0,0,1,4,.13l1.39,1.2c1.07,1.06,2.26,1.08,3.59.06a27,27,0,0,0,3.45-3.05c1.11-1.11,1.11-1.66,0-1.66h-16.2a1.79,1.79,0,0,1-2.06-2V13.62a1.79,1.79,0,0,1,2-2h25.7c1.37,0,2.06.42,2.06,1.26s.62,1.75,1.86,2.72a3.35,3.35,0,0,0,3.92.13A26.75,26.75,0,0,0,633.92,12.7Zm-10.36,9.62a2.31,2.31,0,0,0-3.46.34,49.51,49.51,0,0,1-6.31,5.77c-1.24.89-1.28,1.33-.13,1.33h.86a1.79,1.79,0,0,1,2.06,2v6.84c0,1.11.69,1.24,2.06.4q3-2.79,2.79-8.43a1.9,1.9,0,0,1,2.13-2h6.9c1.37,0,1.51-.42.4-1.27Q627.2,25,623.56,22.32ZM638,55.2c.93-1.11.84-1.66-.26-1.66h-6.64c-1.07,0-1,.7.33,2.12l1.13,1.13c1.24,1,2.59.91,4-.2Z"/><path d="M661.07,13.43c0-1.38.64-2.06,1.93-2.06h48.41a1.79,1.79,0,0,1,2.06,2V26.51a1.79,1.79,0,0,1-2,2.06H704.7c-1.11,0-1.66.71-1.66,2.12s.53,2.19,1.6,2.19h6.77a1.8,1.8,0,0,1,2.06,2V38a1.79,1.79,0,0,1-2,2H704.7a1.44,1.44,0,0,0-1.66,1.6v1.53c0,1.1.53,1.66,1.6,1.66h9.69a1.79,1.79,0,0,1,2.06,2V50a1.79,1.79,0,0,1-2,2.06h-2.79q-2.86-.8-.07,2.65c1.06,1.64.87,2.88-.6,3.72a28.77,28.77,0,0,1-3.32,1.6c-1.19.48-1.15,1,.14,1.66A48.83,48.83,0,0,0,714.93,64c1.41.35,1.79,1.19,1.13,2.52l-1.93,3.65a2.43,2.43,0,0,1-3.25,1.26,41.08,41.08,0,0,1-23-17.79A2.76,2.76,0,0,0,685.38,52h-1.33c-1.11,0-1.66.53-1.66,1.59v7c0,1.06.66,1.51,2,1.33l3.32-.47c1.73-.31,2.81.23,3.26,1.6l.66,2.12c.58,1.6.13,2.57-1.33,2.92q-9,1.94-16.8,3.13a2.85,2.85,0,0,1-3.39-1.6l-1.46-3.32c-.62-1.33-.2-2.1,1.27-2.32l3.18-.4a1.79,1.79,0,0,0,1.6-1.93v-8c0-1.11-.53-1.66-1.6-1.66h-4c-1.06,0-1.71.66-1.93,2A57.34,57.34,0,0,1,663,69.27q-.93,2.07-2.86.93l-2.65-1.59a2.5,2.5,0,0,1-1.26-3.19,90.47,90.47,0,0,0,3.18-10.69,105.29,105.29,0,0,0,1.66-14.87Zm17.27,17.33q0-2.19-1.59-2.19H670c-1.11,0-1.66.53-1.66,1.59V41.65l-.13,1.53c0,1.1.53,1.66,1.59,1.66h6.91a1.44,1.44,0,0,0,1.66-1.6V41.71c0-1.1-.53-1.66-1.59-1.66h-5.12a1.79,1.79,0,0,1-2.06-2V34.94a1.8,1.8,0,0,1,2-2.06h5.11C677.79,32.88,678.34,32.17,678.34,30.76ZM706,20.07a1.35,1.35,0,0,0-1.53-1.53H670c-1.11,0-1.66.46-1.66,1.39s.53,1.53,1.6,1.53h34.46C705.48,21.46,706,21,706,20.07ZM695.6,30.76q0-2.19-1.59-2.19h-6.57c-1.11,0-1.66.71-1.66,2.12s.53,2.19,1.59,2.19h6.57C695.05,32.88,695.6,32.17,695.6,30.76Zm0,11c0-1.15-.51-1.73-1.52-1.73h-6.64a1.44,1.44,0,0,0-1.66,1.6v1.53c0,1.1.53,1.66,1.59,1.66h6.57a1.44,1.44,0,0,0,1.66-1.6Zm7.91,11.76c1.63-1,1.9-1.53.79-1.53h-7.7c-2.08-.49-1.93.37.47,2.59a2.75,2.75,0,0,0,3.18.73Z"/><path d="M737.5,12.7q17.94-.27,33.54-1.27a3.42,3.42,0,0,1,3.12,2.06l1.2,2.13c.88,1.55.61,2.39-.8,2.52q-8.77.54-17.6.8c-1.06.09-1.59.84-1.59,2.26s.53,2.19,1.59,2.19h22.11c1.38,0,2.06.66,2.06,2v3a1.79,1.79,0,0,1-2,2.06H768.52c-1.29,0-1.24.37.13,1.12a76.41,76.41,0,0,0,11.29,3.06q2,.47,1,2.46l-2.12,3.85a2.4,2.4,0,0,1-3.12,1.39,66.52,66.52,0,0,1-18.53-9.76c-1.2-.93-1.79-.86-1.79.2V37.4a1.79,1.79,0,0,1-2,2.06h-3.86a1.8,1.8,0,0,1-2.06-2V33.81c0-1.1-.68-1.15-2.05-.13a73.38,73.38,0,0,1-17.87,8.63A2.86,2.86,0,0,1,724,40.79l-1.26-2.2c-.85-1.46-.54-2.36.92-2.72a68,68,0,0,0,12.82-4.45c1.28-.66,1.22-1-.2-1H724.36a1.79,1.79,0,0,1-2.06-2v-3c0-1.38.66-2.06,2-2.06H745.8c1.11,0,1.66-.67,1.66-2s-.53-2.05-1.59-2.05l-14.81.2c-1.24,0-2.1-.74-2.59-2.2l-.73-2.25c-.53-1.55,0-2.35,1.46-2.39Zm4.59,28.15a2.48,2.48,0,0,1,3.18-1.39l3.19,1.13c1.68.53,2.26,1.26,1.73,2.19s-.07,1.33,1,1.33h27.89c1.38,0,2.06.66,2.06,2v3.32a1.79,1.79,0,0,1-2,2.06h-8.37a3.21,3.21,0,0,0-2.72,2,24.3,24.3,0,0,1-3.19,4.65c-1.1,1.24-1,2.1.47,2.59q7,2.19,11.95,4.11,2,.81.33,2.79l-2.25,2.66q-1.8,2.13-3.79,1.33-7.91-3.25-15.8-5.71c-.54-.45-1.42-.27-2.66.53A89.6,89.6,0,0,1,729.2,72.2,2.68,2.68,0,0,1,726,70.34l-.93-2.93c-.49-1.41-.09-2.17,1.19-2.25a85.1,85.1,0,0,0,16.4-2.86,2.7,2.7,0,0,0-1.32-.53l-2.4-.53a2.42,2.42,0,0,0-2.25.2c-.45.4-1.33.24-2.66-.47l-2.72-1.46q-2.13-1.12-.4-3a37.73,37.73,0,0,0,2.79-3.26c.93-1.15.88-1.72-.13-1.72h-9.23a1.79,1.79,0,0,1-2.06-2V46.16a1.78,1.78,0,0,1,2-2h14.28c1.06,0,2-.67,2.79-2A7,7,0,0,1,742.09,40.85Zm16.73,12.69c1.06-1.38,1-2.06-.07-2.06H746.67a3.74,3.74,0,0,0-2.92,1.66c-.85,1.1-.6,1.83.73,2.19,2.74.57,5.49,1.24,8.23,2q1.59.41,3.72-1.2A11,11,0,0,0,758.82,53.54Z"/><path d="M791.36,32a1.79,1.79,0,0,1,2-2.06H839.3a1.79,1.79,0,0,1,2.06,2V60.84a1.79,1.79,0,0,1-2,2.06H832c-1,0-.93.2.26.6q5.52.93,11.23,1.59,2,.19.93,2.19L843,69.94q-1.34,2.58-3.39,2.12A126.81,126.81,0,0,1,824.69,68c-1.46-.54-1.59-1.42-.4-2.66l.54-.53c1-1.24,1-1.86-.07-1.86H808.69c-1.06,0-1.06.66,0,2l.53.66q1.8,2-.2,2.86a119.55,119.55,0,0,1-16.6,3.52,2.73,2.73,0,0,1-3-1.73,24.5,24.5,0,0,1-1.26-2.79c-.66-1.41-.35-2.19.93-2.32a103.69,103.69,0,0,0,11.49-1.66c1.06-.35,1.1-.53.13-.53h-7.37a1.76,1.76,0,0,1-2-2Zm2.45-18a1.8,1.8,0,0,1,2-2.06h41.3a1.8,1.8,0,0,1,2.06,2V26a1.79,1.79,0,0,1-2,2.06H795.81a1.77,1.77,0,0,1-2-2Zm39.85,24c0-.84-.49-1.26-1.46-1.26H800.72c-1.11,0-1.66.36-1.66,1.06s.53,1.13,1.59,1.13H832C833.1,39,833.66,38.68,833.66,38.06Zm0,8.44q0-1.2-1.53-1.2H800.72c-1.11,0-1.66.36-1.66,1.06s.53,1.13,1.59,1.13H832C833.1,47.49,833.66,47.16,833.66,46.5Zm0,8.56q0-1.26-1.53-1.26H800.72c-1.11,0-1.66.36-1.66,1.06s.53,1.2,1.59,1.2H832C833.1,56.06,833.66,55.73,833.66,55.06Zm-2.19-34.93c0-.88-.51-1.33-1.53-1.33H803.18c-1.11,0-1.66.4-1.66,1.2s.53,1.26,1.59,1.26h26.7C830.91,21.26,831.47,20.89,831.47,20.13Z"/><path d="M879.34,10.84a3.25,3.25,0,0,1,4,.2l1.86,1.46a4,4,0,0,0,1.33.86,131,131,0,0,0,24.63,8.17c1.37.31,1.68,1.13.93,2.45l-1.86,3.26c-.71,1.33-1.39,1.88-2.06,1.66S907,29,907,30.09V45.63a1.79,1.79,0,0,1-2,2.06H858.16a1.79,1.79,0,0,1-2.06-2V30.82c0-1.06-.31-1.52-.93-1.39S853.82,29,853,27.57l-1.53-2.66q-1.19-2.19,1-2.79A121.08,121.08,0,0,0,879.34,10.84Zm-20.05,40.7c0-1.41.62-2.12,1.86-2.12h41.77a1.79,1.79,0,0,1,2.06,2V70.14a1.8,1.8,0,0,1-2,2.06H899.6c-1.33,0-2-.23-2.06-.67S897,70.8,896,70.8H868.39c-1.07,0-1.62.22-1.66.66s-.67.74-2,.74h-3.38a1.79,1.79,0,0,1-2.06-2Zm43.16-24.43-6.37-2.33c-1.06-.4-1.6-.26-1.6.4s-.66,1.06-2,1.06H869.85c-1.38,0-2.06-.24-2.06-.73s-.69-.57-2.06,0L861.88,27q-1.93.87,0,.87h40.44C903.83,27.84,903.87,27.59,902.45,27.11Zm-33.73,7.7c.13-.22-.42-.33-1.66-.33H865.2c-1.11,0-1.66.53-1.66,1.59v3.45c0,1.11.53,1.66,1.59,1.66h1.6c1.1,0,1.26-.7.46-2.12q-1.59-2.19.73-3.65A3.17,3.17,0,0,0,868.72,34.81Zm28.82,21.85q0-.93-1.53-.93H868.39c-1.11,0-1.66.26-1.66.79s.53.87,1.59.87h27.56C897,57.39,897.54,57.14,897.54,56.66Zm0,7.17c0-.62-.49-.93-1.46-.93H868.39c-1.11,0-1.66.26-1.66.8s.53.86,1.59.86h27.56C896.94,64.56,897.49,64.31,897.54,63.83Zm-20-27.63c0-1.15-.51-1.72-1.53-1.72H874.1c-1.11,0-1.22.68-.33,2.06l.33.59c.71,1.38.6,2.33-.33,2.86-1.16.8-1,1.19.39,1.19h1.73c1.11,0,1.66-.53,1.66-1.59Zm1.73-17.26-.6.33c-1.15.8-1.06,1.19.27,1.19h5c1.41,0,1.46-.37.13-1.12a2.57,2.57,0,0,1-.8-.47A3.89,3.89,0,0,0,879.28,18.94Zm9.89,17.73q.93-2.19-.6-2.19h-2.12c-1.11,0-1.66.53-1.66,1.59v3.45c0,1.11.73,1.66,2.19,1.66,1.81,0,2.3-.28,1.46-.86q-.93-.6.27-2.79Zm10.43-.47c0-1.15-.51-1.72-1.53-1.72H895c-1.47,0-1.47.28,0,.86s1.88,1.37,1.39,2.66a8.65,8.65,0,0,0-.73,1.59c-.53,1.06-.27,1.59.8,1.59h1.46c1.1,0,1.66-.53,1.66-1.59Z"/><path d="M140.56,123.3V88.62h4.31l9,23.16V88.62H158V123.3h-4.46l-8.84-22.61V123.3Z" style="fill:#4aa893"/><path d="M180.84,123.3H176l-1.93-7.85h-8.78l-1.82,7.85H158.8l8.55-34.68H172Zm-8.15-13.72-3-12.87-3,12.87Z" style="fill:#686660"/><path d="M184.25,123.3V94.49h-6.52V88.62h17.44v5.87h-6.5V123.3Z" style="fill:#686660"/><path d="M196.31,123.3V88.62h4.42V123.3Z" style="fill:#686660"/><path d="M202.46,106.17A31.18,31.18,0,0,1,203.87,96a13.79,13.79,0,0,1,3.7-6,8.2,8.2,0,0,1,5.54-2q4.71,0,7.68,4.66t3,13.27q0,8.72-3.14,13.6a8.69,8.69,0,0,1-15,0Q202.46,114.72,202.46,106.17Zm4.56-.23q0,6,1.76,9t4.35,3c1.75,0,3.19-1,4.34-3s1.72-5,1.72-9.12-.56-7-1.68-8.92A5,5,0,0,0,213.13,94q-2.7,0-4.4,2.9C207.59,98.87,207,101.87,207,105.94Z" style="fill:#686660"/><path d="M225.67,123.3V88.62H230l9,23.16V88.62h4.13V123.3h-4.46l-8.83-22.61V123.3Z" style="fill:#686660"/><path d="M266,123.3h-4.8l-1.92-7.85h-8.79l-1.82,7.85h-4.71l8.55-34.68h4.69Zm-8.15-13.72-3-12.87-3,12.87Z" style="fill:#686660"/><path d="M266.79,123.3V88.91h4.42v28.52h11v5.87Z" style="fill:#686660"/><path d="M304.25,110.55l4.29,2.15q-1,5.82-3.35,8.51a7.31,7.31,0,0,1-5.75,2.68c-2.86,0-5.18-1.42-7-4.28q-3.06-4.94-3.06-13.34,0-8.86,3.09-13.89c1.79-2.9,4.19-4.35,7.22-4.35a7.49,7.49,0,0,1,6.17,3.26,16.06,16.06,0,0,1,2.6,6.89l-4.38,1.65a8.59,8.59,0,0,0-1.68-4.31,3.74,3.74,0,0,0-2.95-1.5c-1.62,0-2.95.91-4,2.74s-1.54,4.85-1.54,9.06c0,4.37.5,7.47,1.5,9.32s2.29,2.77,3.89,2.77a3.7,3.7,0,0,0,3-1.76A13.07,13.07,0,0,0,304.25,110.55Z" style="fill:#4aa893"/><path d="M309.81,106.17A31.15,31.15,0,0,1,311.23,96a13.69,13.69,0,0,1,3.7-6,8.17,8.17,0,0,1,5.53-2q4.71,0,7.68,4.66t3,13.27q0,8.72-3.14,13.6a8.69,8.69,0,0,1-15,0Q309.81,114.72,309.81,106.17Zm4.57-.23c0,4,.58,7,1.76,9s2.62,3,4.35,3,3.19-1,4.33-3,1.72-5,1.72-9.12-.56-7-1.67-8.92S322.29,94,320.49,94s-3.28,1-4.41,2.9S314.38,101.87,314.38,105.94Z" style="fill:#686660"/><path d="M332.93,88.62h4.42V107.4c0,2.92.06,4.82.17,5.71a6.38,6.38,0,0,0,1.4,3.54,3.68,3.68,0,0,0,2.91,1.26,3.57,3.57,0,0,0,2.51-.89,4.59,4.59,0,0,0,1.33-2.46,38.63,38.63,0,0,0,.36-6.75V88.62h4.42v18.22a62.43,62.43,0,0,1-.58,10.09,9,9,0,0,1-2.59,5,7.38,7.38,0,0,1-5.33,1.93,8.2,8.2,0,0,1-5.36-1.59,9.09,9.09,0,0,1-2.79-4.5q-.87-2.89-.87-10.68Z" style="fill:#686660"/><path d="M353.55,123.3V88.62h4.31l9,23.16V88.62H371V123.3h-4.46l-8.83-22.61V123.3Z" style="fill:#686660"/><path d="M388.08,110.55l4.29,2.15q-1,5.82-3.34,8.51a7.34,7.34,0,0,1-5.75,2.68c-2.86,0-5.18-1.42-7-4.28q-3.07-4.94-3.07-13.34,0-8.86,3.09-13.89Q379,88,383.56,88a7.52,7.52,0,0,1,6.18,3.26,16.19,16.19,0,0,1,2.6,6.89L388,99.83a8.68,8.68,0,0,0-1.67-4.31,3.76,3.76,0,0,0-3-1.5q-2.43,0-4,2.74t-1.53,9.06c0,4.37.5,7.47,1.5,9.32s2.29,2.77,3.89,2.77a3.72,3.72,0,0,0,3-1.76A13.08,13.08,0,0,0,388.08,110.55Z" style="fill:#686660"/><path d="M394.42,123.3V88.62h4.42V123.3Z" style="fill:#686660"/><path d="M401.59,123.3V88.91H406v28.52h11v5.87Z" style="fill:#686660"/><path d="M425,123.3V88.62h15.05v5.87H429.44v8.21h9.2v5.86h-9.2V123.3Z" style="fill:#686660"/><path d="M441.22,106.17A31.18,31.18,0,0,1,442.63,96a13.79,13.79,0,0,1,3.7-6,8.19,8.19,0,0,1,5.53-2c3.15,0,5.7,1.55,7.68,4.66s3,7.53,3,13.27-1.05,10.34-3.14,13.6a8.69,8.69,0,0,1-15,0Q441.21,114.72,441.22,106.17Zm4.56-.23q0,6,1.76,9t4.35,3q2.61,0,4.34-3c1.14-2,1.72-5,1.72-9.12s-.56-7-1.68-8.92A5,5,0,0,0,451.89,94q-2.7,0-4.41,2.9C446.35,98.87,445.78,101.87,445.78,105.94Z" style="fill:#686660"/><path d="M464.39,123.3V88.62h9.33a10.29,10.29,0,0,1,5.12.94,6.72,6.72,0,0,1,2.52,3.24,14.11,14.11,0,0,1,1,5.52,12.55,12.55,0,0,1-1.5,6.55,6.59,6.59,0,0,1-4.29,3.13,13.07,13.07,0,0,1,2.36,2.89,44.69,44.69,0,0,1,2.54,5.65l2.66,6.76h-5.28l-3.21-7.54q-1.74-4.1-2.35-5.13a4,4,0,0,0-1.32-1.42,4.75,4.75,0,0,0-2.23-.39h-.91V123.3Zm4.42-20h3.29a13.12,13.12,0,0,0,3.83-.34,2.72,2.72,0,0,0,1.34-1.39,6.31,6.31,0,0,0,.51-2.77,5.92,5.92,0,0,0-.51-2.66,2.86,2.86,0,0,0-1.39-1.38,13.88,13.88,0,0,0-3.6-.26h-3.47Z" style="fill:#686660"/><path d="M490.7,112l4.33-.66c.49,4.43,2.08,6.65,4.79,6.65a3.91,3.91,0,0,0,3.16-1.36,5.08,5.08,0,0,0,1.15-3.37,4.53,4.53,0,0,0-.41-2,3.31,3.31,0,0,0-1.22-1.36,29.45,29.45,0,0,0-4-1.78,12.48,12.48,0,0,1-4.15-2.41,9.31,9.31,0,0,1-2.09-3.42,13.29,13.29,0,0,1-.77-4.55,12.61,12.61,0,0,1,1-5.1A7.13,7.13,0,0,1,499.58,88a7.31,7.31,0,0,1,6,2.72c1.45,1.81,2.22,4.41,2.3,7.78l-4.43.31a7.28,7.28,0,0,0-1.26-3.9,3.48,3.48,0,0,0-2.76-1.11,3.77,3.77,0,0,0-2.76,1,3.3,3.3,0,0,0-1,2.41,3.43,3.43,0,0,0,.88,2.38,11.21,11.21,0,0,0,4,2.13,14.63,14.63,0,0,1,4.83,2.64,8.81,8.81,0,0,1,2.27,3.57,15.89,15.89,0,0,1,.79,5.31,12.94,12.94,0,0,1-2.15,7.59q-2.14,3.08-6.71,3.07Q491.62,123.89,490.7,112Z" style="fill:#4aa893"/><path d="M510.63,88.62H515V107.4c0,2.92.06,4.82.17,5.71a6.45,6.45,0,0,0,1.4,3.54,3.7,3.7,0,0,0,2.92,1.26A3.6,3.6,0,0,0,522,117a4.65,4.65,0,0,0,1.32-2.46,38.63,38.63,0,0,0,.36-6.75V88.62h4.42v18.22a61.27,61.27,0,0,1-.58,10.09,8.94,8.94,0,0,1-2.59,5,7.37,7.37,0,0,1-5.32,1.93,8.18,8.18,0,0,1-5.36-1.59,9,9,0,0,1-2.8-4.5q-.86-2.89-.86-10.68Z" style="fill:#686660"/><path d="M530.07,112l4.33-.66c.49,4.43,2.08,6.65,4.79,6.65a3.91,3.91,0,0,0,3.16-1.36,5.08,5.08,0,0,0,1.15-3.37,4.53,4.53,0,0,0-.41-2,3.31,3.31,0,0,0-1.22-1.36,29.45,29.45,0,0,0-4-1.78,12.48,12.48,0,0,1-4.15-2.41,9.31,9.31,0,0,1-2.09-3.42,13.29,13.29,0,0,1-.77-4.55,12.61,12.61,0,0,1,1-5.1A7.13,7.13,0,0,1,539,88a7.31,7.31,0,0,1,6,2.72c1.45,1.81,2.22,4.41,2.3,7.78l-4.43.31a7.28,7.28,0,0,0-1.26-3.9,3.48,3.48,0,0,0-2.76-1.11,3.77,3.77,0,0,0-2.76,1,3.3,3.3,0,0,0-1,2.41,3.43,3.43,0,0,0,.88,2.38,11.21,11.21,0,0,0,4,2.13,14.63,14.63,0,0,1,4.83,2.64,8.81,8.81,0,0,1,2.27,3.57,15.89,15.89,0,0,1,.79,5.31,12.94,12.94,0,0,1-2.15,7.59q-2.14,3.08-6.71,3.07Q531,123.89,530.07,112Z" style="fill:#686660"/><path d="M555,123.3V94.49h-6.52V88.62H565.9v5.87h-6.5V123.3Z" style="fill:#686660"/><path d="M584.73,123.3h-4.81L578,115.45h-8.79l-1.81,7.85h-4.71l8.55-34.68h4.69Zm-8.15-13.72-3-12.87-3,12.87Z" style="fill:#686660"/><path d="M585.31,123.3V88.62h4.42V123.3Z" style="fill:#686660"/><path d="M592.42,123.3V88.62h4.31l9,23.16V88.62h4.13V123.3h-4.46l-8.84-22.61V123.3Z" style="fill:#686660"/><path d="M632.7,123.3h-4.8L626,115.45h-8.79l-1.81,7.85h-4.71l8.55-34.68h4.69Zm-8.15-13.72-3-12.87-3,12.87Z" style="fill:#686660"/><path d="M633.41,88.62h8.8a10.89,10.89,0,0,1,5.06.85,6.54,6.54,0,0,1,2.47,3,12.36,12.36,0,0,1,.14,9.4,6.69,6.69,0,0,1-2.24,3A6.49,6.49,0,0,1,650.7,108a11.7,11.7,0,0,1,1.1,5.3,13.48,13.48,0,0,1-1.4,6.4,6.18,6.18,0,0,1-3.33,3.23,27,27,0,0,1-6.19.42h-7.47Zm4.42,5.77v8h2.92a24.58,24.58,0,0,0,3.25-.12,2.62,2.62,0,0,0,1.77-1.24,5,5,0,0,0,.64-2.73,5.14,5.14,0,0,0-.52-2.49,2.27,2.27,0,0,0-1.26-1.2,20.41,20.41,0,0,0-4.24-.24Zm0,13.8v9.24H642a10.19,10.19,0,0,0,3.47-.36,2.81,2.81,0,0,0,1.29-1.44,7.26,7.26,0,0,0,0-5.52,3.1,3.1,0,0,0-1.48-1.51,11,11,0,0,0-3.78-.41Z" style="fill:#686660"/><path d="M654.06,123.3V88.91h4.42v28.52h11v5.87Z" style="fill:#686660"/><path d="M671.08,123.3V88.62h16.29v5.87H675.5v7.69h11V108h-11v9.41h12.28v5.87Z" style="fill:#686660"/><path d="M696.81,88.62h8.08a9.58,9.58,0,0,1,4.63.89,8.45,8.45,0,0,1,2.87,3A17.33,17.33,0,0,1,714.45,98a39.11,39.11,0,0,1,.75,8.35,34.46,34.46,0,0,1-.78,7.81,18.12,18.12,0,0,1-2,5.27,8.3,8.3,0,0,1-2.91,2.92,8.78,8.78,0,0,1-4.39,1h-8.32Zm4.42,5.87v22.94h3.33a7,7,0,0,0,3.09-.51,4.11,4.11,0,0,0,1.57-1.58,10.31,10.31,0,0,0,1-3.32,35.23,35.23,0,0,0,.41-6,35.51,35.51,0,0,0-.41-6.07,9.3,9.3,0,0,0-1.28-3.5,4,4,0,0,0-2.11-1.67,13.37,13.37,0,0,0-3.6-.31Z" style="fill:#4aa893"/><path d="M717.37,123.3V88.62h16.29v5.87H721.79v7.69h11V108h-11v9.41h12.28v5.87Z" style="fill:#686660"/><path d="M741.83,123.3,734,88.62h4.81l5.56,25.67,5.37-25.67h4.72l-7.88,34.68Z" style="fill:#686660"/><path d="M755.06,123.3V88.62h16.29v5.87H759.48v7.69h11V108h-11v9.41h12.28v5.87Z" style="fill:#686660"/><path d="M774,123.3V88.91h4.42v28.52h11v5.87Z" style="fill:#686660"/><path d="M790.12,106.17A31.15,31.15,0,0,1,791.54,96a13.69,13.69,0,0,1,3.7-6,8.17,8.17,0,0,1,5.53-2q4.71,0,7.68,4.66t3,13.27q0,8.72-3.14,13.6a8.69,8.69,0,0,1-15,0Q790.12,114.72,790.12,106.17Zm4.57-.23q0,6,1.76,9t4.35,3c1.74,0,3.19-1,4.33-3s1.72-5,1.72-9.12-.56-7-1.67-8.92S802.6,94,800.8,94s-3.27,1-4.41,2.9S794.69,101.87,794.69,105.94Z" style="fill:#686660"/><path d="M813.28,123.3V88.62h7.12a17,17,0,0,1,5.21.5,6.55,6.55,0,0,1,3.22,3.43,15.5,15.5,0,0,1,1.27,6.76,16,16,0,0,1-1.1,6.31,7.59,7.59,0,0,1-2.74,3.57q-1.63,1-5.66,1h-2.9V123.3Zm4.42-28.81v9.86h2.45a8.4,8.4,0,0,0,3.36-.45,3.39,3.39,0,0,0,1.46-1.62,6.69,6.69,0,0,0,.56-2.88,6.55,6.55,0,0,0-.58-2.92,3.21,3.21,0,0,0-1.45-1.59,10.33,10.33,0,0,0-3.64-.4Z" style="fill:#686660"/><path d="M832.07,123.3V88.62h6.63l4,23.68,4-23.68h6.66V123.3h-4.13V96l-4.37,27.32h-4.27L836.2,96V123.3Z" style="fill:#686660"/><path d="M856.08,123.3V88.62h16.29v5.87H860.5v7.69h11V108h-11v9.41h12.28v5.87Z" style="fill:#686660"/><path d="M875,123.3V88.62h4.31l9,23.16V88.62h4.13V123.3h-4.46l-8.84-22.61V123.3Z" style="fill:#686660"/><path d="M900.38,123.3V94.49h-6.51V88.62h17.44v5.87H904.8V123.3Z" style="fill:#686660"/><circle cx="120.25" cy="62.85" r="6.67" style="fill:#e16810"/><circle cx="117.96" cy="46.86" r="6.67" style="fill:#901d32"/><circle cx="111.24" cy="32.15" r="6.67" style="fill:#eeb619"/><circle cx="100.66" cy="19.95" r="6.67" style="fill:#1b9cc9"/><circle cx="87.06" cy="11.21" r="6.67" style="fill:#da3b1d"/><circle cx="39.88" cy="11.2" r="6.67" style="fill:#cfa214"/><circle cx="26.29" cy="19.94" r="6.67" style="fill:#d51721"/><circle cx="15.7" cy="32.16" r="6.67" style="fill:none"/><circle cx="9" cy="46.86" r="6.67" style="fill:none"/><circle cx="8.98" cy="78.84" r="6.67" style="fill:none"/><circle cx="15.61" cy="93.44" r="6.66" style="fill:#8f2a82"/><circle cx="26.29" cy="105.75" r="6.67" style="fill:#14325e"/><circle cx="39.89" cy="114.5" r="6.67" style="fill:#014981"/><circle cx="87.04" cy="114.52" r="6.67" style="fill:#417636"/><circle cx="100.65" cy="105.78" r="6.67" style="fill:#ca8e0b"/><circle cx="111.24" cy="93.56" r="6.67" style="fill:#ea9d17"/><circle cx="117.95" cy="78.86" r="6.67" style="fill:#cc1372"/><circle cx="55.38" cy="6.66" r="6.67" style="fill:#188f3b"/><circle cx="71.55" cy="6.66" r="6.67" style="fill:#bb1a2a"/><circle cx="55.38" cy="119.06" r="6.67" style="fill:#2f9f3a"/><circle cx="71.55" cy="119.06" r="6.67" style="fill:#1170ae"/><path d="M3.78,39.59A2.07,2.07,0,0,0,1,40.47a2.17,2.17,0,0,0-.22,1.12A3.86,3.86,0,0,0,2,44.52a4.06,4.06,0,0,1-.65,3.58,2,2,0,0,0,0,1.33s-1.27,1.2,1.8,6.07a1,1,0,0,0,.53,1.31l.08,0a1.09,1.09,0,0,0,.44.06s1-.15,1.53,4.24c0,0-.18.33.32.61,0,0-.56.54,1.38,2.44a1.83,1.83,0,0,1,.45,1.11,2.52,2.52,0,0,0,.77,1,2.36,2.36,0,0,0,.71,1.79,1.53,1.53,0,0,1,.65.79s-.43.47,1.09,1.2a5.38,5.38,0,0,1,1.2,2.48.37.37,0,0,0,.47.19A2.34,2.34,0,0,0,13.4,74s-.5.29.49,1.22c0,0,1.25,2.94,2,3.08a2.66,2.66,0,0,0,1.45,2.76s.67,2.38,1.94,2a37.62,37.62,0,0,1,4.23,2.19,2.44,2.44,0,0,0,1.21,1.41s-.3.83,1.28,1.6a3.08,3.08,0,0,0,1.36,1,.91.91,0,0,0,.79,1h.27A7.79,7.79,0,0,1,32,89.81a19.53,19.53,0,0,0,4.68.81,1.75,1.75,0,0,1,1.14.5,1.09,1.09,0,0,0,1.38,0,1.56,1.56,0,0,1,1.27.29s.7.39.7-.32A2,2,0,0,0,43,90s1,0,1-.63c0,0,.2,1.42.85-.16A30.61,30.61,0,0,1,48.23,88a1.44,1.44,0,0,0,1.8.23,13.19,13.19,0,0,1,3.38,1.29c.66.59.84,1,1.49.63,0,0,2.51,1.5,1.67-.56,0,0-.42-.59,1.27-1.06,0,0,.66-.12.62-.5,0,0,.15-.7-.87-.36s-1-.25-1-.25a1.81,1.81,0,0,0-1-1.79s-2.46-1.47-3.28-1.79a3.83,3.83,0,0,1-2.54-2,2.8,2.8,0,0,1-1.31-1.09c-.36-.7-2.65-3.74-2.65-3.74a1.75,1.75,0,0,1,0-1.35,2.24,2.24,0,0,0-.49-1.36,1,1,0,0,0,0-1c-.41-.45-1.52-.57-1.36-1.43a7.32,7.32,0,0,0-1.4-3,1.8,1.8,0,0,0-.93-1.19A2.48,2.48,0,0,1,41,65.93a11,11,0,0,1-2.17-1.66,6.2,6.2,0,0,0-2.13-2.57,18.63,18.63,0,0,1-1.38-1.43,4.78,4.78,0,0,0-1.56-1.11,34.44,34.44,0,0,1-3.12-2.92c-.89-1.09-1.39-.79-2.16-1.79s-1-.09-1.89-2.15A1.68,1.68,0,0,0,25.35,52c-.62.22-.48-.93-1.12-1.43a2.31,2.31,0,0,1-1.29-2.45s.34-.74-2.41-2.44a6,6,0,0,1-.71-1.56c0-.34,0-.86-.86-.7A1.69,1.69,0,0,0,17.07,42a1.18,1.18,0,0,0-.37.09,11.14,11.14,0,0,0-3-.88s-2.9-2.58-2.26-4.73c0,0,.31-.54-.44-.82,0,0-.49-.34-.88.79,0,0-.25.43-1-.09,0,0-1.15-1.22-1.79,0a2.5,2.5,0,0,1-1.1,1.45A4.36,4.36,0,0,0,5.2,39C5,39.7,4.34,38,3.78,39.59Z" style="fill:#109a8a"/><path d="M87.87,76.59a3.69,3.69,0,0,1-4.25.27,10,10,0,0,0-1.47-.72,8.46,8.46,0,0,0-7.7,1.29C73,74,68.73,69.78,67.05,72.67a11.11,11.11,0,0,0-.81,4.49c-.1,1.15-.19,2.28-.39,3.41a7.88,7.88,0,0,1-.4,1.59,1.49,1.49,0,0,0-.17.36c-.56.61-1.8-.25-2.42-.66A10.24,10.24,0,0,1,60,78.51c-.44-.81-.8-1.69-1.21-2.51q-1.15-2.15-2.37-4.25a50,50,0,0,0-7-9.66c-1.27-1.3-2.69-2.47-3.94-3.79a4.14,4.14,0,0,1-1.4-2.19,3.22,3.22,0,0,1,1.43-1.79c1.15-1,2.8-2,2.58-3.75a4.57,4.57,0,0,0-2.77-3,17.13,17.13,0,0,0-5.79-1.49,22,22,0,0,0-5.38.18,4.83,4.83,0,0,1-1.56-1.65c-.55-.75-1-1.56-1.55-2.31A46,46,0,0,0,27.52,38a32.79,32.79,0,0,0-9.12-7A22.59,22.59,0,0,0,7.45,28.57a8.91,8.91,0,0,0-4.87,1.15A6.19,6.19,0,0,0,0,34a5.83,5.83,0,0,1,4.5-4.4,18.6,18.6,0,0,1,7.31.54,25.07,25.07,0,0,1,10,5.37,37.28,37.28,0,0,1,7.7,9A10.73,10.73,0,0,0,33,48.71a6.12,6.12,0,0,0,3.42.12,19.1,19.1,0,0,1,5.77.79,6.42,6.42,0,0,1,2.62,1.28c-.34.3-.88.6-1.09.77A11.36,11.36,0,0,0,42.27,53,4.33,4.33,0,0,0,41,56.83c.52,2.68,3.13,4.51,5,6.32a42.9,42.9,0,0,1,7.17,9.46q1.61,2.64,3,5.38a18.25,18.25,0,0,0,3,4.75c2,2,6.39,4.74,8.54,1.41A11,11,0,0,0,69,79.28a31,31,0,0,1,.34-4.41c.52-.52,4,2.29,4.55,4.35a2.61,2.61,0,0,0,1.38-.43,6.94,6.94,0,0,1,3.59-.87,8.91,8.91,0,0,1,3.22.66h0c2,.55,5,.52,5.75-1.9Z" style="fill:#109a8a"/><path d="M87.87,76.59A20.08,20.08,0,0,1,81,88.08,15.27,15.27,0,0,1,74.09,91a23.25,23.25,0,0,1-3.82.31,14.35,14.35,0,0,0-2.93,0h-.18a6.85,6.85,0,0,0-2,1.79,15.59,15.59,0,0,1-2.51,2.29A10.16,10.16,0,0,1,58.59,97a14.29,14.29,0,0,1-10.75-2.38,17.49,17.49,0,0,0,10.52-.21,9.18,9.18,0,0,0,2.36-1.24,14.78,14.78,0,0,0,2-2.11,8,8,0,0,1,3.58-3,11.78,11.78,0,0,1,3.19-.23,25,25,0,0,0,5.79-.56,18,18,0,0,0,9.44-6.32C85.85,79.47,86.92,78,87.87,76.59Z" style="fill:#109a8a"/><path d="M66.08,61a1.68,1.68,0,0,0-.66-1.42,8.72,8.72,0,0,0-2.35-1,17.73,17.73,0,0,1-2.69-1.07,4.38,4.38,0,0,1-2.68-3.92,3.8,3.8,0,0,1,.71-2.3,4.71,4.71,0,0,1,2.08-1.58,8,8,0,0,1,3.14-.55,7.19,7.19,0,0,1,3,.61,4.9,4.9,0,0,1,2.06,1.79A4.56,4.56,0,0,1,69.34,54H66.1a2.14,2.14,0,0,0-.68-1.7,2.83,2.83,0,0,0-1.92-.61,3,3,0,0,0-1.79.5,1.59,1.59,0,0,0-.66,1.33,1.5,1.5,0,0,0,.77,1.29,8.66,8.66,0,0,0,2.29,1,10,10,0,0,1,4,2.08A4.08,4.08,0,0,1,69.43,61a3.8,3.8,0,0,1-1.56,3.23,6.79,6.79,0,0,1-4.17,1.16,8.11,8.11,0,0,1-3.41-.59A5.26,5.26,0,0,1,58,63a4.76,4.76,0,0,1-.79-2.69h3.26c0,1.75,1.05,2.62,3.14,2.62a3.05,3.05,0,0,0,1.79-.47A1.52,1.52,0,0,0,66.08,61Z" style="fill:#6d6e68"/><path d="M71.15,65.18V49.35H76a7.33,7.33,0,0,1,3.72.94,6.45,6.45,0,0,1,2.6,2.7,8.31,8.31,0,0,1,.93,3.94v.71a8.24,8.24,0,0,1-.92,3.93,6.51,6.51,0,0,1-2.58,2.67,7.46,7.46,0,0,1-3.72,1H71.15ZM74.38,52V62.54H76a3.57,3.57,0,0,0,2.92-1.25,5.66,5.66,0,0,0,1-3.59v-.8a5.8,5.8,0,0,0-1-3.59A3.58,3.58,0,0,0,76,52.08H74.38Z" style="fill:#6d6e68"/><path d="M97.67,63.17a5.62,5.62,0,0,1-2.49,1.63,10.37,10.37,0,0,1-3.58.57,7.07,7.07,0,0,1-3.6-.89,6.1,6.1,0,0,1-2.38-2.6,9.06,9.06,0,0,1-.86-4V56.79a9.63,9.63,0,0,1,.81-4.1A5.89,5.89,0,0,1,87.88,50a7.58,7.58,0,0,1,8,.41,5.74,5.74,0,0,1,1.79,3.9H94.55a3.18,3.18,0,0,0-1-2,3.11,3.11,0,0,0-2-.62A2.88,2.88,0,0,0,89,53a6.51,6.51,0,0,0-.88,3.71v1a6.22,6.22,0,0,0,1,3.77,3.27,3.27,0,0,0,2.78,1.27A3.54,3.54,0,0,0,94.48,62V59.26h-3v-2.4h6.16Z" style="fill:#6d6e68"/><path d="M106.13,61.91a1,1,0,0,0-.57-.91,6.67,6.67,0,0,0-1.8-.59c-2.79-.59-4.19-1.79-4.19-3.58a3.24,3.24,0,0,1,1.29-2.62,5.22,5.22,0,0,1,3.39-1,5.66,5.66,0,0,1,3.58,1.06A3.3,3.3,0,0,1,109.17,57H106a1.48,1.48,0,0,0-.43-1.15,2,2,0,0,0-2.52,0,1.13,1.13,0,0,0-.43.92.94.94,0,0,0,.43.87,5.17,5.17,0,0,0,1.66.56,12.51,12.51,0,0,1,2,.52,3.24,3.24,0,0,1,2.49,3.15,3,3,0,0,1-1.37,2.6,6,6,0,0,1-3.59,1,6.36,6.36,0,0,1-2.6-.65,4.52,4.52,0,0,1-1.79-1.45,3.34,3.34,0,0,1-.64-2h3a1.63,1.63,0,0,0,.63,1.29,2.43,2.43,0,0,0,1.54.45,2.32,2.32,0,0,0,1.36-.34A1.07,1.07,0,0,0,106.13,61.91Z" style="fill:#6d6e68"/><path d="M49.65,34.75H46.43v9H45.12v-9H41.91V33.68h7.74Z" style="fill:#6d6e68"/><path d="M56.1,41.08H51.89l-1,2.61H49.6l3.83-10H54.6l3.83,10H57.05ZM52.3,40h3.41L53.92,35.3Z" style="fill:#6d6e68"/><path d="M61.55,43.69H60.22v-10h1.33Z" style="fill:#6d6e68"/><path d="M66.51,40.54l.2,1.32L67,40.68l2-7h1.08l1.93,7,.27,1.22.31-1.34,1.56-6.86h1.32L73,43.69H71.74l-2.06-7.31-.16-.77-.16.77-2.15,7.31H66l-2.4-10H65Z" style="fill:#6d6e68"/><path d="M82.44,41.08H78.25l-1,2.61H75.94l3.81-10h1.17l3.83,10H83.34ZM78.64,40h3.41L80.26,35.3Z" style="fill:#6d6e68"/><path d="M93.87,43.69H92.53l-5-7.72v7.72H86.17v-10h1.32l5.06,7.81V33.68h1.31v10Z" style="fill:#6d6e68"/></svg>